<?xml version="1.0" encoding="UTF-8" standalone="no" ?>
<!DOCTYPE svg PUBLIC "-//W3C//DTD SVG 1.1//EN" "http://www.w3.org/Graphics/SVG/1.1/DTD/svg11.dtd">
<svg xmlns="http://www.w3.org/2000/svg" xmlns:xlink="http://www.w3.org/1999/xlink" version="1.1" width="1080" height="1080" viewBox="0 0 1080 1080" xml:space="preserve">
<desc>Created with Fabric.js 5.2.4</desc>
<defs>
</defs>
<g transform="matrix(1 0 0 1 540 540)" id="6f8e1205-aae9-4a19-941b-8237cc5deaf7"  >
<rect style="stroke: none; stroke-width: 1; stroke-dasharray: none; stroke-linecap: butt; stroke-dashoffset: 0; stroke-linejoin: miter; stroke-miterlimit: 4; fill: rgb(0,0,0); fill-rule: nonzero; opacity: 1;" vector-effect="non-scaling-stroke"  x="-540" y="-540" rx="0" ry="0" width="1080" height="1080" />
</g>
<g transform="matrix(1 0 0 1 540 540)" id="104bb885-5523-4e97-bb77-bfaf3d67c29f"  >
</g>
<g transform="matrix(27 0 0 27 540 540)"  >
<path style="stroke: none; stroke-width: 1; stroke-dasharray: none; stroke-linecap: butt; stroke-dashoffset: 0; stroke-linejoin: miter; stroke-miterlimit: 4; fill: rgb(255,255,255); fill-rule: nonzero; opacity: 1;"  transform=" translate(-20, -20)" d="M 5.736 5.734 C 13.376999999999999 -1.907 26.659 -1.9109999999999996 34.284 5.714 C 35.198 6.627000000000001 35.943999999999996 7.61 36.552 8.642 C 36.41150029417174 8.615822408887105 36.268916916421 8.602434298300182 36.126 8.602 C 33.32 8.602 32.599999999999994 10.583 26.626999999999995 10.65 C 20.653999999999996 10.583 19.933999999999997 8.601 17.126999999999995 8.601 C 15.329999999999995 8.601 11.946999999999996 10.967 10.435999999999996 18.989 C 9.572999999999997 23.569000000000003 8.635999999999996 30.405 10.866999999999996 31.226 C 13.642999999999995 32.247 14.583999999999996 29.694 17.631999999999994 27.535999999999998 C 20.725999999999996 25.348 22.210999999999995 24.833999999999996 26.626999999999995 24.833999999999996 C 31.042999999999996 24.833999999999996 32.526999999999994 25.348999999999997 35.62199999999999 27.535999999999994 C 37.40599999999999 28.796999999999993 38.468999999999994 30.194999999999993 39.599999999999994 30.932999999999993 L 39.999 40 L 19.046 40 C 14.136 39.883 9.456 38.03 5.712999999999999 34.287 C -1.9120000000000008 26.662 -1.9050000000000011 13.375999999999998 5.735999999999999 5.734999999999999 Z M 19.77 13.516 C 20.679 13.516 21.551 13.858 22.194 14.469 C 22.831028221517236 15.066422500072676 23.19412781265697 15.899670964202105 23.198 16.773 C 23.198 17.637 22.838 18.465 22.194 19.076 C 21.53756142988129 19.692017523092623 20.6702098569 20.03337618671645 19.77 20.03 C 18.86 20.03 17.989 19.686 17.346 19.076 C 16.70875582639369 18.479058210036868 16.345287825316447 17.646155915031006 16.341 16.773 C 16.341 15.908999999999999 16.703 15.08 17.346 14.469 C 18.00253838642928 13.853259381444282 18.86990827706196 13.51225133450825 19.77 13.516 Z M 31.77 16.773 C 32.224 16.773 32.66 16.944 32.982 17.25 C 33.304 17.555 33.484 17.97 33.484 18.4 C 33.484 18.833 33.304 19.247999999999998 32.982 19.552999999999997 C 32.65369775597731 19.860877669439 32.22007628756657 20.031535623590752 31.77 20.029999999999998 C 31.315 20.029999999999998 30.878999999999998 19.857999999999997 30.558 19.552999999999997 C 30.239584535535933 19.254219193972865 30.058054200632327 18.83763962064825 30.056 18.400999999999996 C 30.056 17.968999999999998 30.236 17.554999999999996 30.558 17.249999999999996 C 30.88624695834575 16.942034962440975 31.319904621799267 16.771362763210508 31.77 16.772999999999996 Z M 35.198 13.516 C 35.653 13.516 36.09 13.687 36.411 13.993 C 36.733000000000004 14.298 36.913000000000004 14.713000000000001 36.913000000000004 15.144 C 36.913000000000004 15.576 36.733000000000004 15.99 36.411 16.295 C 36.082601457025355 16.603479822773405 35.64855864419342 16.77452060144914 35.198 16.773000000000003 C 34.744 16.773000000000003 34.308 16.601000000000003 33.986 16.295 C 33.66773759926487 15.996527272882377 33.486210373905834 15.580316443423714 33.483999999999995 15.144000000000002 C 33.483999999999995 14.712000000000002 33.663999999999994 14.298000000000002 33.986 13.993000000000002 C 34.31419159144425 13.684947487814522 34.74788551801166 13.514261016714974 35.198 13.516000000000002 Z" stroke-linecap="round" />
</g>
<g transform="matrix(NaN NaN NaN NaN 0 0)"  >
<g style=""   >
</g>
</g>
</svg>