<svg version="1.2" xmlns="http://www.w3.org/2000/svg" viewBox="0 0 32 32" width="32" height="32">
	<title>photoeditor</title>
	<style>
		.s0 { fill: #23262f } 
	</style>
	<path class="s0" d="m13.6 11.4l2.3 6h-4.7z"/>
	<path fill-rule="evenodd" class="s0" d="m28 5.9c1.9 1 3 3 3 5.1v10c0 2.1-1.1 4.1-3 5.1l-9.2 5.2c-1.7 1-3.9 1-5.6 0l-9.2-5.2c-1.9-1-3-3-3-5.1v-10c0-2.1 1.1-4.1 3-5.1l9.2-5.2c1.7-0.9 3.9-0.9 5.6 0zm-9.6 16.1c0.7 0 1.2-0.6 1.2-1.2q0-0.2-0.1-0.4l-4-10.2c-0.4-0.7-1.2-1.2-2-1.2-0.8 0-1.5 0.5-1.8 1.2l-4.1 10.2q-0.1 0.2-0.1 0.4c0 0.6 0.5 1.2 1.3 1.2 0.4 0 0.9-0.3 1.1-0.7l0.7-1.8h5.9l0.7 1.8c0.2 0.4 0.7 0.7 1.2 0.7zm3.9 0c0.7 0 1.2-0.5 1.2-1.1v-10.8c0-0.6-0.5-1.1-1.2-1.1-0.6 0-1.1 0.5-1.1 1.1v10.8c0 0.6 0.5 1.1 1.1 1.1z"/>
</svg>